<svg xmlns="http://www.w3.org/2000/svg" x="0px" y="0px" width="75px" height="70px" viewBox="0 0 75 70" enable-background="new 0 0 75 70">
                        <g>
                          <g>
                            <linearGradient id="SVGID_1_1_" gradientUnits="userSpaceOnUse" x1="10.3334" y1="-0.0127" x2="10.3334" y2="70.0193">
                              <stop offset="0" stop-color="var(--color-stop-1)"/>
                              <stop offset="1" stop-color="var(--color-stop-2)"/>
                            </linearGradient>
                            <path fill="url(#SVGID_1_1_)" d="M10.969,51.195H9.697c0-3.072-0.543-5.33-3.322-7.78c-0.15-0.132-0.458-0.362-0.814-0.628&#9;&#9;&#9;&#9;c-1.463-1.092-4.187-3.125-5.51-5.405l-0.088-0.151V27.111l1.184,2.041c1.191,2.053,3.778,3.984,5.168,5.021&#9;&#9;&#9;&#9;c0.41,0.306,0.706,0.527,0.895,0.694c1.633,1.44,2.585,2.846,3.122,4.339c0.537-1.492,1.489-2.899,3.122-4.339&#9;&#9;&#9;&#9;c0.188-0.166,0.484-0.387,0.894-0.693c1.39-1.038,3.978-2.969,5.17-5.022l1.184-2.041V37.23l-0.088,0.151&#9;&#9;&#9;&#9;c-1.323,2.28-4.047,4.313-5.511,5.406c-0.356,0.266-0.664,0.496-0.813,0.627C11.513,45.865,10.969,48.123,10.969,51.195z&#9;&#9;&#9;&#9;M1.236,36.876c1.226,1.997,3.723,3.861,5.08,4.874c0.41,0.306,0.707,0.528,0.895,0.694c1.633,1.44,2.585,2.846,3.122,4.339&#9;&#9;&#9;&#9;c0.537-1.492,1.489-2.899,3.123-4.339c0.188-0.166,0.484-0.387,0.894-0.693c1.357-1.013,3.855-2.877,5.081-4.875v-5.451&#9;&#9;&#9;&#9;c-1.397,1.6-3.222,2.962-4.327,3.787c-0.356,0.266-0.664,0.495-0.813,0.627c-2.778,2.451-3.322,4.708-3.322,7.78H9.697&#9;&#9;&#9;&#9;c0-3.072-0.543-5.33-3.322-7.78c-0.15-0.132-0.457-0.362-0.814-0.628c-1.105-0.825-2.929-2.186-4.326-3.786V36.876z"/>
                            <linearGradient id="SVGID_2_1_" gradientUnits="userSpaceOnUse" x1="10.3334" y1="-0.0127" x2="10.3334" y2="70.0193">
                              <stop offset="0" stop-color="var(--color-stop-1)"/>
                              <stop offset="1" stop-color="var(--color-stop-2)"/>
                            </linearGradient>
                            <path fill="url(#SVGID_2_1_)" d="M5.589,35.075c-0.274,0-0.527-0.181-0.609-0.461c-0.857-2.917-0.997-5.575,1.103-9.065&#9;&#9;&#9;&#9;c0.13-0.215,0.345-0.514,0.641-0.927c0.839-1.167,2.243-3.119,3.019-5.065l0.59-1.478l0.59,1.478&#9;&#9;&#9;&#9;c0.777,1.946,2.181,3.899,3.02,5.066c0.297,0.413,0.511,0.711,0.641,0.925c2.1,3.491,1.96,6.149,1.104,9.066&#9;&#9;&#9;&#9;c-0.1,0.341-0.455,0.536-0.791,0.434c-0.337-0.101-0.528-0.46-0.428-0.801c0.782-2.662,0.892-4.933-0.97-8.027&#9;&#9;&#9;&#9;c-0.102-0.169-0.325-0.479-0.583-0.838c-0.693-0.963-1.755-2.44-2.582-4.054c-0.827,1.613-1.888,3.09-2.581,4.053&#9;&#9;&#9;&#9;c-0.258,0.359-0.481,0.67-0.584,0.84c-1.862,3.094-1.751,5.365-0.97,8.026c0.1,0.341-0.092,0.7-0.428,0.801&#9;&#9;&#9;&#9;C5.71,35.066,5.649,35.075,5.589,35.075z"/>
                            <linearGradient id="SVGID_3_1_" gradientUnits="userSpaceOnUse" x1="10.3333" y1="-0.0127" x2="10.3333" y2="70.0193">
                              <stop offset="0" stop-color="var(--color-stop-1)"/>
                              <stop offset="1" stop-color="var(--color-stop-2)"/>
                            </linearGradient>
                            <path fill="url(#SVGID_3_1_)" d="M13.097,36.732c-0.28,0-0.537-0.189-0.613-0.476c-0.241-0.9-0.648-1.82-1.246-2.813&#9;&#9;&#9;&#9;c-0.104-0.172-0.33-0.488-0.593-0.854c-0.095-0.133-0.2-0.279-0.312-0.435c-0.111,0.157-0.216,0.303-0.312,0.436&#9;&#9;&#9;&#9;c-0.263,0.366-0.489,0.681-0.593,0.853c-0.598,0.992-1.005,1.912-1.246,2.813c-0.092,0.343-0.441,0.546-0.78,0.453&#9;&#9;&#9;&#9;c-0.339-0.093-0.54-0.447-0.448-0.79c0.272-1.02,0.726-2.049,1.387-3.147c0.13-0.217,0.348-0.52,0.65-0.941&#9;&#9;&#9;&#9;c0.244-0.339,0.52-0.724,0.818-1.159l0.522-0.76l0.522,0.76c0.299,0.435,0.575,0.819,0.818,1.158&#9;&#9;&#9;&#9;c0.302,0.421,0.52,0.724,0.651,0.941c0.661,1.098,1.115,2.127,1.387,3.147c0.092,0.343-0.109,0.697-0.448,0.79&#9;&#9;&#9;&#9;C13.208,36.725,13.152,36.732,13.097,36.732z"/>
                            <linearGradient id="SVGID_4_1_" gradientUnits="userSpaceOnUse" x1="10.3334" y1="-0.0127" x2="10.3334" y2="70.0193">
                              <stop offset="0" stop-color="var(--color-stop-1)"/>
                              <stop offset="1" stop-color="var(--color-stop-2)"/>
                            </linearGradient>
                            <path fill="url(#SVGID_4_1_)" d="M10.969,58.772H9.697c0-3.072-0.543-5.33-3.322-7.78c-0.15-0.132-0.458-0.362-0.814-0.628&#9;&#9;&#9;&#9;c-1.463-1.092-4.187-3.125-5.51-5.405l-0.088-0.151V34.688l1.184,2.041c1.191,2.053,3.778,3.984,5.168,5.021&#9;&#9;&#9;&#9;c0.41,0.306,0.706,0.527,0.895,0.694c1.633,1.44,2.585,2.846,3.122,4.339c0.537-1.492,1.489-2.899,3.122-4.339&#9;&#9;&#9;&#9;c0.188-0.166,0.484-0.387,0.894-0.693c1.39-1.038,3.978-2.969,5.17-5.022l1.184-2.041v10.119l-0.088,0.151&#9;&#9;&#9;&#9;c-1.323,2.28-4.047,4.313-5.511,5.406c-0.356,0.266-0.664,0.496-0.813,0.628C11.513,53.442,10.969,55.7,10.969,58.772z&#9;&#9;&#9;&#9;M1.236,44.452c1.226,1.997,3.723,3.861,5.08,4.874c0.41,0.306,0.707,0.528,0.895,0.694c1.633,1.44,2.585,2.846,3.122,4.339&#9;&#9;&#9;&#9;c0.537-1.492,1.489-2.899,3.123-4.339c0.188-0.166,0.484-0.387,0.894-0.693c1.357-1.013,3.855-2.877,5.081-4.875v-5.451&#9;&#9;&#9;&#9;c-1.397,1.6-3.222,2.961-4.327,3.787c-0.356,0.266-0.664,0.495-0.813,0.627c-2.778,2.451-3.322,4.708-3.322,7.78H9.697&#9;&#9;&#9;&#9;c0-3.072-0.543-5.33-3.322-7.78c-0.15-0.132-0.457-0.362-0.814-0.628c-1.105-0.825-2.929-2.186-4.326-3.786V44.452z"/>
                            <linearGradient id="SVGID_5_1_" gradientUnits="userSpaceOnUse" x1="10.3334" y1="-0.0127" x2="10.3334" y2="70.0193">
                              <stop offset="0" stop-color="var(--color-stop-1)"/>
                              <stop offset="1" stop-color="var(--color-stop-2)"/>
                            </linearGradient>
                            <path fill="url(#SVGID_5_1_)" d="M10.969,66.348H9.697c0-3.072-0.543-5.33-3.322-7.78c-0.15-0.132-0.458-0.362-0.815-0.629&#9;&#9;&#9;&#9;c-0.722-0.539-1.71-1.276-2.7-2.16c-1.841-1.642-2.897-4.01-2.897-6.496v-7.02l1.184,2.041c1.191,2.053,3.778,3.984,5.168,5.021&#9;&#9;&#9;&#9;c0.41,0.306,0.706,0.527,0.895,0.694c1.633,1.44,2.585,2.846,3.122,4.339c0.537-1.492,1.489-2.899,3.123-4.339&#9;&#9;&#9;&#9;c0.188-0.166,0.484-0.387,0.894-0.693c1.39-1.038,3.978-2.969,5.17-5.022l1.184-2.041v7.02c0,2.486-1.056,4.854-2.897,6.496&#9;&#9;&#9;&#9;c-0.991,0.884-1.979,1.621-2.701,2.16c-0.357,0.266-0.665,0.496-0.814,0.628C11.513,61.018,10.969,63.276,10.969,66.348z&#9;&#9;&#9;&#9;M1.236,46.578v2.706c0,2.116,0.899,4.132,2.466,5.529c0.949,0.846,1.911,1.565,2.614,2.089c0.411,0.306,0.707,0.528,0.896,0.694&#9;&#9;&#9;&#9;c1.633,1.44,2.585,2.846,3.122,4.339c0.537-1.492,1.489-2.899,3.123-4.339c0.188-0.166,0.485-0.387,0.895-0.694&#9;&#9;&#9;&#9;c0.703-0.525,1.666-1.243,2.615-2.09c1.567-1.397,2.466-3.413,2.466-5.529v-2.706c-1.397,1.6-3.222,2.962-4.327,3.787&#9;&#9;&#9;&#9;c-0.356,0.266-0.664,0.495-0.813,0.627c-2.778,2.45-3.322,4.708-3.322,7.78H9.697c0-3.072-0.543-5.33-3.322-7.78&#9;&#9;&#9;&#9;c-0.15-0.132-0.457-0.362-0.814-0.628C4.456,49.539,2.632,48.177,1.236,46.578z"/>
                            <linearGradient id="SVGID_6_1_" gradientUnits="userSpaceOnUse" x1="0.5997" y1="-0.0127" x2="0.5997" y2="70.0193">
                              <stop offset="0" stop-color="var(--color-stop-1)"/>
                              <stop offset="1" stop-color="var(--color-stop-2)"/>
                            </linearGradient>
                            <path fill="url(#SVGID_6_1_)" d="M0.6,30.123c-0.351,0-0.636-0.288-0.636-0.644V16.408c0-0.356,0.285-0.644,0.636-0.644&#9;&#9;&#9;&#9;c0.351,0,0.636,0.288,0.636,0.644v13.071C1.236,29.834,0.951,30.123,0.6,30.123z"/>
                            <linearGradient id="SVGID_7_1_" gradientUnits="userSpaceOnUse" x1="10.3332" y1="-0.0127" x2="10.3332" y2="70.0193">
                              <stop offset="0" stop-color="var(--color-stop-1)"/>
                              <stop offset="1" stop-color="var(--color-stop-2)"/>
                            </linearGradient>
                            <path fill="url(#SVGID_7_1_)" d="M10.333,20.443c-0.351,0-0.636-0.288-0.636-0.644v-7.678c0-0.356,0.285-0.644,0.636-0.644&#9;&#9;&#9;&#9;c0.351,0,0.636,0.288,0.636,0.644v7.678C10.969,20.154,10.685,20.443,10.333,20.443z"/>
                            <linearGradient id="SVGID_8_1_" gradientUnits="userSpaceOnUse" x1="20.0672" y1="-0.0127" x2="20.0672" y2="70.0193">
                              <stop offset="0" stop-color="var(--color-stop-1)"/>
                              <stop offset="1" stop-color="var(--color-stop-2)"/>
                            </linearGradient>
                            <path fill="url(#SVGID_8_1_)" d="M20.067,30.123c-0.351,0-0.636-0.288-0.636-0.644V16.408c0-0.356,0.285-0.644,0.636-0.644&#9;&#9;&#9;&#9;c0.351,0,0.636,0.288,0.636,0.644v13.071C20.703,29.834,20.419,30.123,20.067,30.123z"/>
                            <linearGradient id="SVGID_9_1_" gradientUnits="userSpaceOnUse" x1="10.3332" y1="-0.0127" x2="10.3332" y2="70.0193">
                              <stop offset="0" stop-color="var(--color-stop-1)"/>
                              <stop offset="1" stop-color="var(--color-stop-2)"/>
                            </linearGradient>
                            <path fill="url(#SVGID_9_1_)" d="M10.333,70.025c-0.351,0-0.636-0.288-0.636-0.644V42.222c0-0.356,0.285-0.644,0.636-0.644&#9;&#9;&#9;&#9;c0.351,0,0.636,0.288,0.636,0.644v27.159C10.969,69.737,10.685,70.025,10.333,70.025z"/>
                          </g>
                          <g>
                            <linearGradient id="SVGID_10_1_" gradientUnits="userSpaceOnUse" x1="37.4636" y1="-0.0127" x2="37.4636" y2="70.0193">
                              <stop offset="0" stop-color="var(--color-stop-1)"/>
                              <stop offset="1" stop-color="var(--color-stop-2)"/>
                            </linearGradient>
                            <path fill="url(#SVGID_10_1_)" d="M38.1,47.558h-1.272c0-3.724-0.659-6.461-4.03-9.433c-0.183-0.162-0.537-0.426-0.985-0.76&#9;&#9;&#9;&#9;c-1.748-1.305-5.003-3.735-6.578-6.448l-0.088-0.151V19.131l1.184,2.041c1.443,2.486,4.561,4.814,6.236,6.064&#9;&#9;&#9;&#9;c0.471,0.352,0.843,0.629,1.065,0.825c2.069,1.824,3.218,3.603,3.831,5.51c0.613-1.906,1.762-3.685,3.83-5.51&#9;&#9;&#9;&#9;c0.222-0.196,0.594-0.474,1.065-0.825c1.675-1.25,4.794-3.578,6.237-6.064l1.184-2.041v11.634l-0.088,0.151&#9;&#9;&#9;&#9;c-1.575,2.713-4.829,5.143-6.578,6.448c-0.448,0.334-0.801,0.598-0.985,0.76C38.759,41.097,38.1,43.834,38.1,47.558z&#9;&#9;&#9;&#9;M26.419,30.412c1.478,2.43,4.506,4.691,6.148,5.916c0.471,0.352,0.843,0.629,1.066,0.826c2.069,1.824,3.218,3.603,3.831,5.509&#9;&#9;&#9;&#9;c0.613-1.907,1.762-3.685,3.83-5.51c0.222-0.196,0.594-0.474,1.065-0.826c1.642-1.226,4.67-3.486,6.148-5.916v-6.923&#9;&#9;&#9;&#9;c-1.691,2.021-4.013,3.754-5.394,4.785c-0.448,0.334-0.801,0.598-0.984,0.76c-3.37,2.973-4.03,5.71-4.03,9.434h-1.272&#9;&#9;&#9;&#9;c0-3.724-0.659-6.461-4.03-9.433c-0.183-0.162-0.537-0.426-0.984-0.76c-1.382-1.031-3.703-2.764-5.394-4.785V30.412z"/>
                            <linearGradient id="SVGID_11_1_" gradientUnits="userSpaceOnUse" x1="37.4636" y1="-0.0127" x2="37.4636" y2="70.0193">
                              <stop offset="0" stop-color="var(--color-stop-1)"/>
                              <stop offset="1" stop-color="var(--color-stop-2)"/>
                            </linearGradient>
                            <path fill="url(#SVGID_11_1_)" d="M43.157,28.085c-0.06,0-0.121-0.009-0.182-0.027c-0.337-0.101-0.528-0.46-0.428-0.801&#9;&#9;&#9;&#9;c0.948-3.228,1.082-5.982-1.177-9.736c-0.125-0.208-0.382-0.564-0.706-1.016c-0.86-1.197-2.198-3.057-3.199-5.07&#9;&#9;&#9;&#9;c-1.002,2.014-2.339,3.874-3.2,5.07c-0.324,0.451-0.581,0.808-0.707,1.017c-2.259,3.753-2.125,6.508-1.177,9.735&#9;&#9;&#9;&#9;c0.1,0.341-0.092,0.7-0.428,0.801c-0.336,0.101-0.691-0.093-0.791-0.434c-1.019-3.467-1.186-6.627,1.31-10.774&#9;&#9;&#9;&#9;c0.153-0.254,0.423-0.629,0.764-1.104c1.01-1.405,2.701-3.756,3.638-6.105l0.59-1.478l0.59,1.478&#9;&#9;&#9;&#9;c0.937,2.349,2.628,4.701,3.638,6.105c0.341,0.475,0.611,0.85,0.764,1.103c2.496,4.148,2.329,7.307,1.311,10.775&#9;&#9;&#9;&#9;C43.684,27.904,43.431,28.085,43.157,28.085z"/>
                            <linearGradient id="SVGID_12_1_" gradientUnits="userSpaceOnUse" x1="37.4636" y1="-0.0127" x2="37.4636" y2="70.0193">
                              <stop offset="0" stop-color="var(--color-stop-1)"/>
                              <stop offset="1" stop-color="var(--color-stop-2)"/>
                            </linearGradient>
                            <path fill="url(#SVGID_12_1_)" d="M40.78,30.074c-0.28,0-0.537-0.189-0.613-0.476c-0.292-1.092-0.786-2.207-1.509-3.409&#9;&#9;&#9;&#9;c-0.127-0.21-0.387-0.572-0.716-1.031c-0.144-0.2-0.306-0.426-0.479-0.67c-0.172,0.243-0.334,0.468-0.478,0.668&#9;&#9;&#9;&#9;c-0.329,0.459-0.59,0.821-0.717,1.032c-0.724,1.202-1.217,2.317-1.509,3.409c-0.092,0.344-0.441,0.546-0.78,0.453&#9;&#9;&#9;&#9;c-0.339-0.093-0.54-0.447-0.448-0.79c0.323-1.211,0.863-2.435,1.651-3.743c0.154-0.255,0.428-0.637,0.774-1.119&#9;&#9;&#9;&#9;c0.293-0.408,0.625-0.87,0.984-1.393l0.522-0.76l0.522,0.76c0.36,0.524,0.692,0.987,0.985,1.395&#9;&#9;&#9;&#9;c0.346,0.482,0.619,0.862,0.773,1.118c0.787,1.307,1.327,2.532,1.651,3.743c0.092,0.343-0.109,0.697-0.448,0.79&#9;&#9;&#9;&#9;C40.891,30.066,40.835,30.074,40.78,30.074z"/>
                            <linearGradient id="SVGID_13_1_" gradientUnits="userSpaceOnUse" x1="37.4636" y1="-0.0127" x2="37.4636" y2="70.0193">
                              <stop offset="0" stop-color="var(--color-stop-1)"/>
                              <stop offset="1" stop-color="var(--color-stop-2)"/>
                            </linearGradient>
                            <path fill="url(#SVGID_13_1_)" d="M38.1,56.65h-1.272c0-3.724-0.659-6.461-4.03-9.433c-0.183-0.162-0.537-0.426-0.985-0.76&#9;&#9;&#9;&#9;c-1.748-1.305-5.003-3.735-6.578-6.448l-0.088-0.151V28.223l1.184,2.041c1.443,2.486,4.561,4.814,6.236,6.064&#9;&#9;&#9;&#9;c0.471,0.351,0.843,0.629,1.065,0.825c2.069,1.824,3.218,3.603,3.831,5.509c0.613-1.906,1.762-3.685,3.83-5.51&#9;&#9;&#9;&#9;c0.222-0.196,0.594-0.474,1.065-0.825c1.675-1.25,4.794-3.578,6.237-6.064l1.184-2.041v11.634l-0.088,0.151&#9;&#9;&#9;&#9;c-1.575,2.713-4.829,5.143-6.578,6.448c-0.448,0.334-0.802,0.598-0.985,0.76C38.759,50.189,38.1,52.926,38.1,56.65z&#9;&#9;&#9;&#9;M26.419,39.503c1.478,2.43,4.506,4.69,6.148,5.916c0.471,0.352,0.843,0.63,1.066,0.826c2.069,1.824,3.218,3.603,3.831,5.509&#9;&#9;&#9;&#9;c0.613-1.907,1.762-3.685,3.83-5.51c0.222-0.196,0.594-0.474,1.066-0.826c1.642-1.226,4.67-3.486,6.148-5.916V32.58&#9;&#9;&#9;&#9;c-1.691,2.021-4.013,3.754-5.394,4.785c-0.448,0.334-0.801,0.598-0.984,0.76c-3.37,2.973-4.03,5.71-4.03,9.433h-1.272&#9;&#9;&#9;&#9;c0-3.724-0.659-6.461-4.03-9.433c-0.183-0.162-0.537-0.426-0.984-0.76c-1.382-1.031-3.703-2.764-5.394-4.785V39.503z"/>
                            <linearGradient id="SVGID_14_1_" gradientUnits="userSpaceOnUse" x1="37.4636" y1="-0.0127" x2="37.4636" y2="70.0193">
                              <stop offset="0" stop-color="var(--color-stop-1)"/>
                              <stop offset="1" stop-color="var(--color-stop-2)"/>
                            </linearGradient>
                            <path fill="url(#SVGID_14_1_)" d="M38.1,65.742h-1.272c0-3.724-0.659-6.461-4.03-9.433c-0.183-0.162-0.537-0.426-0.985-0.76&#9;&#9;&#9;&#9;c-0.864-0.645-2.048-1.528-3.232-2.585c-2.182-1.946-3.433-4.752-3.433-7.698v-7.95l1.184,2.041&#9;&#9;&#9;&#9;c1.443,2.486,4.561,4.814,6.236,6.064c0.471,0.351,0.843,0.629,1.065,0.825c2.069,1.824,3.218,3.603,3.831,5.509&#9;&#9;&#9;&#9;c0.613-1.906,1.762-3.685,3.83-5.51c0.222-0.196,0.594-0.474,1.065-0.825c1.675-1.25,4.794-3.578,6.237-6.064l1.184-2.041v7.95&#9;&#9;&#9;&#9;c0,2.946-1.251,5.752-3.433,7.698c-1.185,1.057-2.368,1.94-3.232,2.585c-0.448,0.334-0.802,0.598-0.985,0.76&#9;&#9;&#9;&#9;C38.759,59.281,38.1,62.018,38.1,65.742z M26.419,41.672v3.593c0,2.577,1.094,5.03,3.002,6.731&#9;&#9;&#9;&#9;c1.143,1.02,2.301,1.884,3.146,2.515c0.471,0.352,0.844,0.63,1.066,0.826c2.069,1.824,3.218,3.603,3.83,5.509&#9;&#9;&#9;&#9;c0.613-1.907,1.762-3.685,3.83-5.51c0.222-0.196,0.594-0.474,1.066-0.826c0.845-0.631,2.003-1.495,3.146-2.515&#9;&#9;&#9;&#9;c1.908-1.701,3.002-4.155,3.002-6.731v-3.593c-1.691,2.021-4.013,3.754-5.394,4.785c-0.448,0.334-0.801,0.598-0.984,0.76&#9;&#9;&#9;&#9;c-3.37,2.972-4.03,5.71-4.03,9.433h-1.272c0-3.724-0.659-6.461-4.03-9.433c-0.183-0.162-0.537-0.426-0.984-0.76&#9;&#9;&#9;&#9;C30.432,45.426,28.11,43.693,26.419,41.672z"/>
                            <linearGradient id="SVGID_15_1_" gradientUnits="userSpaceOnUse" x1="25.7832" y1="-0.0127" x2="25.7832" y2="70.0193">
                              <stop offset="0" stop-color="var(--color-stop-1)"/>
                              <stop offset="1" stop-color="var(--color-stop-2)"/>
                            </linearGradient>
                            <path fill="url(#SVGID_15_1_)" d="M25.783,22.143c-0.351,0-0.636-0.288-0.636-0.644V5.813c0-0.356,0.285-0.644,0.636-0.644&#9;&#9;&#9;&#9;s0.636,0.288,0.636,0.644v15.685C26.419,21.854,26.135,22.143,25.783,22.143z"/>
                            <linearGradient id="SVGID_16_1_" gradientUnits="userSpaceOnUse" x1="37.4637" y1="-0.0127" x2="37.4637" y2="70.0193">
                              <stop offset="0" stop-color="var(--color-stop-1)"/>
                              <stop offset="1" stop-color="var(--color-stop-2)"/>
                            </linearGradient>
                            <path fill="url(#SVGID_16_1_)" d="M37.464,10.527c-0.351,0-0.636-0.288-0.636-0.644V0.669c0-0.356,0.285-0.644,0.636-0.644&#9;&#9;&#9;&#9;S38.1,0.313,38.1,0.669v9.214C38.1,10.239,37.815,10.527,37.464,10.527z"/>
                            <linearGradient id="SVGID_17_1_" gradientUnits="userSpaceOnUse" x1="49.1441" y1="-0.0127" x2="49.1441" y2="70.0193">
                              <stop offset="0" stop-color="var(--color-stop-1)"/>
                              <stop offset="1" stop-color="var(--color-stop-2)"/>
                            </linearGradient>
                            <path fill="url(#SVGID_17_1_)" d="M49.144,22.143c-0.351,0-0.636-0.288-0.636-0.644V5.813c0-0.356,0.285-0.644,0.636-0.644&#9;&#9;&#9;&#9;c0.351,0,0.636,0.288,0.636,0.644v15.685C49.78,21.854,49.495,22.143,49.144,22.143z"/>
                            <linearGradient id="SVGID_18_1_" gradientUnits="userSpaceOnUse" x1="37.4637" y1="-0.0127" x2="37.4637" y2="70.0193">
                              <stop offset="0" stop-color="var(--color-stop-1)"/>
                              <stop offset="1" stop-color="var(--color-stop-2)"/>
                            </linearGradient>
                            <path fill="url(#SVGID_18_1_)" d="M37.464,70.025c-0.351,0-0.636-0.288-0.636-0.644v-32.59c0-0.356,0.285-0.644,0.636-0.644&#9;&#9;&#9;&#9;s0.636,0.288,0.636,0.644v32.59C38.1,69.737,37.815,70.025,37.464,70.025z"/>
                          </g>
                          <g>
                            <linearGradient id="SVGID_19_1_" gradientUnits="userSpaceOnUse" x1="64.5938" y1="-0.0127" x2="64.5938" y2="70.0193">
                              <stop offset="0" stop-color="var(--color-stop-1)"/>
                              <stop offset="1" stop-color="var(--color-stop-2)"/>
                            </linearGradient>
                            <path fill="url(#SVGID_19_1_)" d="M65.23,51.195h-1.272c0-3.072-0.543-5.33-3.322-7.78c-0.149-0.132-0.457-0.362-0.814-0.628&#9;&#9;&#9;&#9;c-1.463-1.092-4.187-3.125-5.511-5.406l-0.088-0.151V27.111l1.184,2.041c1.192,2.053,3.779,3.984,5.17,5.022&#9;&#9;&#9;&#9;c0.41,0.306,0.705,0.526,0.894,0.693c1.633,1.44,2.585,2.847,3.122,4.339c0.537-1.493,1.489-2.899,3.123-4.339&#9;&#9;&#9;&#9;c0.188-0.166,0.484-0.387,0.894-0.693c1.39-1.037,3.977-2.969,5.168-5.021l1.184-2.041V37.23l-0.088,0.151&#9;&#9;&#9;&#9;c-1.323,2.28-4.046,4.313-5.51,5.405c-0.357,0.266-0.665,0.496-0.814,0.628C65.774,45.865,65.23,48.123,65.23,51.195z&#9;&#9;&#9;&#9;M55.496,36.876c1.227,1.998,3.724,3.862,5.081,4.875c0.41,0.306,0.706,0.527,0.894,0.693c1.633,1.44,2.585,2.846,3.122,4.339&#9;&#9;&#9;&#9;c0.537-1.493,1.489-2.899,3.123-4.339c0.188-0.166,0.485-0.388,0.895-0.694c1.357-1.013,3.854-2.877,5.08-4.874v-5.451&#9;&#9;&#9;&#9;c-1.397,1.599-3.221,2.961-4.326,3.786c-0.357,0.266-0.664,0.496-0.814,0.628c-2.778,2.45-3.322,4.708-3.322,7.78h-1.272&#9;&#9;&#9;&#9;c0-3.072-0.543-5.33-3.322-7.78c-0.149-0.132-0.457-0.361-0.813-0.627c-1.105-0.825-2.93-2.187-4.327-3.787V36.876z"/>
                            <linearGradient id="SVGID_20_1_" gradientUnits="userSpaceOnUse" x1="64.594" y1="-0.0127" x2="64.594" y2="70.0193">
                              <stop offset="0" stop-color="var(--color-stop-1)"/>
                              <stop offset="1" stop-color="var(--color-stop-2)"/>
                            </linearGradient>
                            <path fill="url(#SVGID_20_1_)" d="M69.338,35.075c-0.06,0-0.121-0.009-0.182-0.027c-0.337-0.101-0.528-0.46-0.428-0.801&#9;&#9;&#9;&#9;c0.782-2.661,0.892-4.932-0.97-8.027c-0.102-0.169-0.325-0.48-0.584-0.839c-0.692-0.963-1.754-2.44-2.581-4.053&#9;&#9;&#9;&#9;c-0.827,1.614-1.889,3.091-2.582,4.054c-0.258,0.359-0.481,0.669-0.584,0.839c-1.861,3.094-1.751,5.365-0.969,8.026&#9;&#9;&#9;&#9;c0.1,0.341-0.092,0.7-0.428,0.801c-0.336,0.102-0.691-0.093-0.791-0.434c-0.857-2.917-0.997-5.575,1.103-9.065&#9;&#9;&#9;&#9;c0.13-0.215,0.344-0.513,0.641-0.926c0.839-1.167,2.243-3.12,3.02-5.066l0.59-1.478l0.59,1.478&#9;&#9;&#9;&#9;c0.777,1.946,2.181,3.899,3.019,5.065c0.297,0.413,0.512,0.711,0.641,0.926c2.101,3.491,1.96,6.149,1.103,9.066&#9;&#9;&#9;&#9;C69.865,34.894,69.612,35.075,69.338,35.075z"/>
                            <linearGradient id="SVGID_21_1_" gradientUnits="userSpaceOnUse" x1="64.5941" y1="-0.0127" x2="64.5941" y2="70.0193">
                              <stop offset="0" stop-color="var(--color-stop-1)"/>
                              <stop offset="1" stop-color="var(--color-stop-2)"/>
                            </linearGradient>
                            <path fill="url(#SVGID_21_1_)" d="M67.358,36.732c-0.28,0-0.537-0.189-0.613-0.476c-0.241-0.9-0.648-1.82-1.246-2.813&#9;&#9;&#9;&#9;c-0.103-0.172-0.33-0.487-0.592-0.852c-0.096-0.133-0.201-0.28-0.312-0.436c-0.112,0.157-0.217,0.304-0.313,0.437&#9;&#9;&#9;&#9;c-0.262,0.365-0.488,0.68-0.592,0.852c-0.598,0.993-1.005,1.913-1.245,2.813c-0.092,0.344-0.441,0.546-0.78,0.454&#9;&#9;&#9;&#9;c-0.339-0.093-0.54-0.447-0.448-0.79c0.272-1.019,0.726-2.048,1.387-3.147c0.13-0.217,0.348-0.52,0.649-0.939&#9;&#9;&#9;&#9;c0.244-0.34,0.521-0.725,0.82-1.16l0.522-0.76l0.522,0.76c0.299,0.435,0.575,0.82,0.819,1.159c0.301,0.42,0.519,0.723,0.65,0.94&#9;&#9;&#9;&#9;c0.661,1.098,1.115,2.127,1.387,3.147c0.092,0.343-0.109,0.697-0.448,0.79C67.469,36.725,67.413,36.732,67.358,36.732z"/>
                            <linearGradient id="SVGID_22_1_" gradientUnits="userSpaceOnUse" x1="64.5938" y1="-0.0127" x2="64.5938" y2="70.0193">
                              <stop offset="0" stop-color="var(--color-stop-1)"/>
                              <stop offset="1" stop-color="var(--color-stop-2)"/>
                            </linearGradient>
                            <path fill="url(#SVGID_22_1_)" d="M65.23,58.772h-1.272c0-3.072-0.543-5.33-3.322-7.78c-0.149-0.132-0.457-0.362-0.814-0.628&#9;&#9;&#9;&#9;c-1.463-1.092-4.187-3.125-5.511-5.406l-0.088-0.151V34.688l1.184,2.041c1.192,2.053,3.779,3.984,5.17,5.022&#9;&#9;&#9;&#9;c0.41,0.306,0.705,0.526,0.894,0.693c1.633,1.44,2.585,2.847,3.122,4.339c0.537-1.493,1.489-2.899,3.123-4.339&#9;&#9;&#9;&#9;c0.188-0.166,0.484-0.387,0.894-0.693c1.39-1.037,3.977-2.969,5.168-5.021l1.184-2.041v10.119l-0.088,0.151&#9;&#9;&#9;&#9;c-1.323,2.28-4.046,4.313-5.51,5.405c-0.357,0.266-0.665,0.496-0.814,0.628C65.774,53.441,65.23,55.699,65.23,58.772z&#9;&#9;&#9;&#9;M55.496,44.452c1.227,1.998,3.724,3.862,5.081,4.875c0.41,0.306,0.706,0.527,0.894,0.693c1.633,1.44,2.585,2.846,3.122,4.339&#9;&#9;&#9;&#9;c0.537-1.493,1.489-2.899,3.123-4.339c0.188-0.166,0.485-0.388,0.895-0.694c1.357-1.013,3.854-2.877,5.08-4.874v-5.451&#9;&#9;&#9;&#9;c-1.397,1.599-3.221,2.961-4.326,3.786c-0.357,0.266-0.664,0.496-0.814,0.628c-2.778,2.45-3.322,4.708-3.322,7.78h-1.272&#9;&#9;&#9;&#9;c0-3.072-0.543-5.33-3.322-7.78c-0.149-0.132-0.457-0.361-0.813-0.627c-1.105-0.825-2.93-2.187-4.327-3.787V44.452z"/>
                            <linearGradient id="SVGID_23_1_" gradientUnits="userSpaceOnUse" x1="64.5938" y1="-0.0127" x2="64.5938" y2="70.0193">
                              <stop offset="0" stop-color="var(--color-stop-1)"/>
                              <stop offset="1" stop-color="var(--color-stop-2)"/>
                            </linearGradient>
                            <path fill="url(#SVGID_23_1_)" d="M65.23,66.348h-1.272c0-3.072-0.543-5.33-3.322-7.78c-0.15-0.132-0.458-0.362-0.814-0.628&#9;&#9;&#9;&#9;c-0.722-0.539-1.71-1.276-2.701-2.16c-1.841-1.642-2.897-4.01-2.897-6.496v-7.02l1.184,2.041c1.192,2.053,3.779,3.984,5.17,5.022&#9;&#9;&#9;&#9;c0.41,0.306,0.705,0.526,0.894,0.693c1.633,1.44,2.585,2.846,3.122,4.339c0.537-1.493,1.489-2.899,3.123-4.339&#9;&#9;&#9;&#9;c0.188-0.166,0.484-0.387,0.894-0.693c1.39-1.037,3.977-2.969,5.168-5.021l1.184-2.041v7.02c0,2.486-1.056,4.854-2.897,6.496&#9;&#9;&#9;&#9;c-0.991,0.884-1.979,1.621-2.701,2.16c-0.357,0.266-0.664,0.496-0.814,0.628C65.774,61.018,65.23,63.276,65.23,66.348z&#9;&#9;&#9;&#9;M55.496,46.578v2.706c0,2.116,0.899,4.132,2.466,5.529c0.949,0.847,1.912,1.565,2.615,2.09c0.41,0.306,0.707,0.527,0.895,0.694&#9;&#9;&#9;&#9;c1.633,1.44,2.585,2.846,3.122,4.339c0.537-1.493,1.489-2.899,3.123-4.339c0.188-0.166,0.484-0.387,0.894-0.693&#9;&#9;&#9;&#9;c0.703-0.525,1.666-1.243,2.615-2.09c1.567-1.397,2.466-3.413,2.466-5.529v-2.706c-1.397,1.599-3.221,2.961-4.326,3.786&#9;&#9;&#9;&#9;c-0.357,0.266-0.664,0.496-0.814,0.628c-2.778,2.45-3.322,4.708-3.322,7.78h-1.272c0-3.072-0.543-5.33-3.322-7.78&#9;&#9;&#9;&#9;c-0.149-0.132-0.457-0.361-0.813-0.627C58.718,49.539,56.893,48.178,55.496,46.578z"/>
                            <linearGradient id="SVGID_24_1_" gradientUnits="userSpaceOnUse" x1="54.8601" y1="-0.0127" x2="54.8601" y2="70.0193">
                              <stop offset="0" stop-color="var(--color-stop-1)"/>
                              <stop offset="1" stop-color="var(--color-stop-2)"/>
                            </linearGradient>
                            <path fill="url(#SVGID_24_1_)" d="M54.86,30.123c-0.351,0-0.636-0.288-0.636-0.644V16.408c0-0.356,0.285-0.644,0.636-0.644&#9;&#9;&#9;&#9;s0.636,0.288,0.636,0.644v13.071C55.496,29.834,55.211,30.123,54.86,30.123z"/>
                            <linearGradient id="SVGID_25_1_" gradientUnits="userSpaceOnUse" x1="64.5941" y1="-0.0127" x2="64.5941" y2="70.0193">
                              <stop offset="0" stop-color="var(--color-stop-1)"/>
                              <stop offset="1" stop-color="var(--color-stop-2)"/>
                            </linearGradient>
                            <path fill="url(#SVGID_25_1_)" d="M64.594,20.443c-0.351,0-0.636-0.288-0.636-0.644v-7.678c0-0.356,0.285-0.644,0.636-0.644&#9;&#9;&#9;&#9;s0.636,0.288,0.636,0.644v7.678C65.23,20.154,64.945,20.443,64.594,20.443z"/>
                            <linearGradient id="SVGID_26_1_" gradientUnits="userSpaceOnUse" x1="74.3276" y1="-0.0127" x2="74.3276" y2="70.0193">
                              <stop offset="0" stop-color="var(--color-stop-1)"/>
                              <stop offset="1" stop-color="var(--color-stop-2)"/>
                            </linearGradient>
                            <path fill="url(#SVGID_26_1_)" d="M74.328,30.123c-0.351,0-0.636-0.288-0.636-0.644V16.408c0-0.356,0.285-0.644,0.636-0.644&#9;&#9;&#9;&#9;s0.636,0.288,0.636,0.644v13.071C74.964,29.834,74.679,30.123,74.328,30.123z"/>
                            <linearGradient id="SVGID_27_1_" gradientUnits="userSpaceOnUse" x1="64.5941" y1="-0.0127" x2="64.5941" y2="70.0193">
                              <stop offset="0" stop-color="var(--color-stop-1)"/>
                              <stop offset="1" stop-color="var(--color-stop-2)"/>
                            </linearGradient>
                            <path fill="url(#SVGID_27_1_)" d="M64.594,70.025c-0.351,0-0.636-0.288-0.636-0.644V42.222c0-0.356,0.285-0.644,0.636-0.644&#9;&#9;&#9;&#9;s0.636,0.288,0.636,0.644v27.159C65.23,69.737,64.945,70.025,64.594,70.025z"/>
                          </g>
                        </g>
                      </svg>