<svg xmlns="http://www.w3.org/2000/svg" x="0px" y="0px" width="70px" height="74px" viewBox="0 0 70 74" enable-background="new 0 0 70 74">
                        <g>
                          <g>
                            <linearGradient id="SVGID_1_2_" gradientUnits="userSpaceOnUse" x1="27.0126" y1="0.1849" x2="27.0126" y2="73.8946"> 
                              <stop offset="0" style="stop-color:#E9DA5B"/>
                              <stop offset="1" style="stop-color:#76A86F"/>
                            </linearGradient>
                            <path fill="url(#SVGID_1_2_)" d="M29.677,24.171c-0.226,0-0.446-0.112-0.575-0.316c-0.199-0.315-0.102-0.731,0.215-0.928&#9;&#9;&#9;&#9;c0.757-0.471,1.404-1.089,1.921-1.838c0.983-1.432,1.348-3.159,1.026-4.863c-0.323-1.707-1.294-3.185-2.735-4.162&#9;&#9;&#9;&#9;c-1.442-0.978-3.181-1.34-4.897-1.02c-1.202,0.225-2.31,0.776-3.204,1.594c-0.275,0.252-0.704,0.234-0.958-0.039&#9;&#9;&#9;&#9;c-0.253-0.273-0.236-0.699,0.039-0.951c1.081-0.989,2.42-1.656,3.872-1.927c2.071-0.386,4.17,0.051,5.911,1.232&#9;&#9;&#9;&#9;c1.741,1.18,2.914,2.965,3.303,5.025c0.389,2.057-0.051,4.143-1.24,5.872c-0.624,0.903-1.404,1.649-2.32,2.218&#9;&#9;&#9;&#9;C29.924,24.138,29.8,24.171,29.677,24.171z"/>
                            <linearGradient id="SVGID_2_2_" gradientUnits="userSpaceOnUse" x1="34.5209" y1="0.1849" x2="34.5209" y2="73.8946">
                              <stop offset="0" style="stop-color:#E9DA5B"/>
                              <stop offset="1" style="stop-color:#76A86F"/>
                            </linearGradient>
                            <path fill="url(#SVGID_2_2_)" d="M32.93,16.776c-0.32,0-0.604-0.226-0.665-0.549c-0.069-0.365,0.173-0.717,0.541-0.786l3.18-0.594&#9;&#9;&#9;&#9;c0.366-0.069,0.722,0.172,0.791,0.537c0.069,0.365-0.173,0.717-0.541,0.786l-3.18,0.594C33.014,16.772,32.972,16.776,32.93,16.776&#9;&#9;&#9;&#9;z"/>
                            <linearGradient id="SVGID_3_2_" gradientUnits="userSpaceOnUse" x1="33.1323" y1="0.1849" x2="33.1323" y2="73.8946">
                              <stop offset="0" style="stop-color:#E9DA5B"/>
                              <stop offset="1" style="stop-color:#76A86F"/>
                            </linearGradient>
                            <path fill="url(#SVGID_3_2_)" d="M34.467,23.958c-0.132,0-0.265-0.038-0.382-0.118l-2.671-1.814&#9;&#9;&#9;&#9;c-0.309-0.21-0.388-0.629-0.177-0.936c0.211-0.307,0.632-0.386,0.942-0.176l2.671,1.814c0.309,0.21,0.388,0.629,0.177,0.936&#9;&#9;&#9;&#9;C34.896,23.856,34.684,23.958,34.467,23.958z"/>
                            <linearGradient id="SVGID_4_2_" gradientUnits="userSpaceOnUse" x1="24.209" y1="0.1849" x2="24.209" y2="73.8946">
                              <stop offset="0" style="stop-color:#E9DA5B"/>
                              <stop offset="1" style="stop-color:#76A86F"/>
                            </linearGradient>
                            <path fill="url(#SVGID_4_2_)" d="M24.507,11.056c-0.32,0-0.604-0.226-0.665-0.549l-0.598-3.159&#9;&#9;&#9;&#9;c-0.069-0.365,0.173-0.717,0.541-0.786c0.368-0.069,0.722,0.172,0.791,0.537l0.598,3.159c0.069,0.365-0.173,0.717-0.541,0.786&#9;&#9;&#9;&#9;C24.591,11.053,24.549,11.056,24.507,11.056z"/>
                            <linearGradient id="SVGID_5_2_" gradientUnits="userSpaceOnUse" x1="30.8246" y1="0.1849" x2="30.8246" y2="73.8946">
                              <stop offset="0" style="stop-color:#E9DA5B"/>
                              <stop offset="1" style="stop-color:#76A86F"/>
                            </linearGradient>
                            <path fill="url(#SVGID_5_2_)" d="M29.911,12.183c-0.132,0-0.265-0.038-0.382-0.117c-0.309-0.21-0.388-0.629-0.177-0.936l1.826-2.654&#9;&#9;&#9;&#9;C31.389,8.169,31.811,8.09,32.12,8.3c0.309,0.21,0.388,0.629,0.177,0.936l-1.826,2.654C30.34,12.08,30.127,12.183,29.911,12.183z"/>
                            <linearGradient id="SVGID_6_2_" gradientUnits="userSpaceOnUse" x1="15.3905" y1="0.1849" x2="15.3905" y2="73.8946">
                              <stop offset="0" style="stop-color:#E9DA5B"/>
                              <stop offset="1" style="stop-color:#76A86F"/>
                            </linearGradient>
                            <path fill="url(#SVGID_6_2_)" d="M25.247,30.848H5.504c-3.014,0-5.467-2.436-5.467-5.431c0-2.843,2.211-5.183,5.014-5.408&#9;&#9;&#9;&#9;c-0.329-2.627,0.425-5.262,2.123-7.339c1.87-2.287,4.644-3.599,7.61-3.599c5.406,0,9.805,4.37,9.805,9.741&#9;&#9;&#9;&#9;c0,0.387-0.024,0.776-0.071,1.163c0.246-0.034,0.494-0.051,0.742-0.051c3.025,0,5.485,2.451,5.485,5.463&#9;&#9;&#9;&#9;C30.744,28.398,28.278,30.848,25.247,30.848z M5.495,21.337c-2.262,0-4.103,1.83-4.103,4.08c0,2.252,1.844,4.085,4.112,4.085&#9;&#9;&#9;&#9;h19.743c2.284,0,4.142-1.846,4.142-4.115c0-2.27-1.853-4.117-4.13-4.117c-0.46,0-0.919,0.078-1.365,0.231l-1.158,0.398&#9;&#9;&#9;&#9;l0.277-1.186c0.146-0.626,0.22-1.266,0.22-1.902c0-4.629-3.79-8.394-8.449-8.394c-2.556,0-4.946,1.131-6.558,3.102&#9;&#9;&#9;&#9;c-1.613,1.973-2.237,4.531-1.713,7.02l0.184,0.873l-0.895-0.063C5.698,21.341,5.596,21.337,5.495,21.337z"/>
                          </g>
                          <linearGradient id="SVGID_7_2_" gradientUnits="userSpaceOnUse" x1="41.1902" y1="0.1849" x2="41.1902" y2="73.8946">
                            <stop offset="0" style="stop-color:#E9DA5B"/>
                            <stop offset="1" style="stop-color:#76A86F"/>
                          </linearGradient>
                          <path fill="url(#SVGID_7_2_)" d="M13.593,74.058c-0.22,0-0.436-0.107-0.567-0.303c-0.206-0.311-0.119-0.728,0.193-0.933&#9;&#9;&#9;l55.196-36.111c0.313-0.205,0.733-0.119,0.939,0.192c0.206,0.311,0.119,0.728-0.193,0.933L13.965,73.947&#9;&#9;&#9;C13.85,74.022,13.721,74.058,13.593,74.058z"/>
                          <linearGradient id="SVGID_8_2_" gradientUnits="userSpaceOnUse" x1="49.9813" y1="0.1849" x2="49.9813" y2="73.8946">
                            <stop offset="0" style="stop-color:#E9DA5B"/>
                            <stop offset="1" style="stop-color:#76A86F"/>
                          </linearGradient>
                          <path fill="url(#SVGID_8_2_)" d="M31.175,74.058c-0.22,0-0.436-0.107-0.567-0.303c-0.206-0.311-0.119-0.728,0.193-0.933&#9;&#9;&#9;l37.613-24.609c0.313-0.205,0.733-0.119,0.939,0.192c0.206,0.311,0.119,0.728-0.193,0.933L31.547,73.947&#9;&#9;&#9;C31.432,74.022,31.303,74.058,31.175,74.058z"/>
                          <linearGradient id="SVGID_9_2_" gradientUnits="userSpaceOnUse" x1="58.7706" y1="0.1849" x2="58.7706" y2="73.8946">
                            <stop offset="0" style="stop-color:#E9DA5B"/>
                            <stop offset="1" style="stop-color:#76A86F"/>
                          </linearGradient>
                          <path fill="url(#SVGID_9_2_)" d="M48.754,74.058c-0.22,0-0.436-0.107-0.567-0.303c-0.206-0.311-0.119-0.728,0.193-0.933&#9;&#9;&#9;l20.035-13.108c0.313-0.205,0.733-0.119,0.939,0.192c0.206,0.311,0.119,0.728-0.193,0.933L49.126,73.947&#9;&#9;&#9;C49.011,74.022,48.882,74.058,48.754,74.058z"/>
                          <linearGradient id="SVGID_10_2_" gradientUnits="userSpaceOnUse" x1="22.0334" y1="0.1849" x2="22.0334" y2="73.8946">
                            <stop offset="0" style="stop-color:#E9DA5B"/>
                            <stop offset="1" style="stop-color:#76A86F"/>
                          </linearGradient>
                          <path fill="url(#SVGID_10_2_)" d="M42.317,55.266c-0.067,0-0.135-0.01-0.203-0.031L1.547,42.603&#9;&#9;&#9;c-0.357-0.111-0.556-0.489-0.444-0.844c0.112-0.355,0.491-0.552,0.849-0.441L42.52,53.95c0.357,0.111,0.556,0.489,0.444,0.844&#9;&#9;&#9;C42.873,55.082,42.606,55.266,42.317,55.266z"/>
                          <linearGradient id="SVGID_11_2_" gradientUnits="userSpaceOnUse" x1="18.4126" y1="0.1849" x2="18.4126" y2="73.8946">
                            <stop offset="0" style="stop-color:#E9DA5B"/>
                            <stop offset="1" style="stop-color:#76A86F"/>
                          </linearGradient>
                          <path fill="url(#SVGID_11_2_)" d="M31.894,62.085c-0.067,0-0.135-0.01-0.203-0.031L4.729,53.658&#9;&#9;&#9;c-0.357-0.111-0.556-0.489-0.444-0.844c0.112-0.355,0.492-0.552,0.849-0.441l26.961,8.395c0.357,0.111,0.556,0.489,0.444,0.844&#9;&#9;&#9;C32.449,61.9,32.182,62.085,31.894,62.085z"/>
                          <linearGradient id="SVGID_12_2_" gradientUnits="userSpaceOnUse" x1="14.7904" y1="0.1849" x2="14.7904" y2="73.8946">
                            <stop offset="0" style="stop-color:#E9DA5B"/>
                            <stop offset="1" style="stop-color:#76A86F"/>
                          </linearGradient>
                          <path fill="url(#SVGID_12_2_)" d="M21.466,68.907c-0.067,0-0.135-0.01-0.203-0.031L7.912,64.717&#9;&#9;&#9;c-0.357-0.111-0.556-0.489-0.444-0.844c0.112-0.355,0.492-0.552,0.849-0.441l13.352,4.159c0.357,0.111,0.556,0.489,0.444,0.844&#9;&#9;&#9;C22.022,68.722,21.755,68.907,21.466,68.907z"/>
                          <g>
                            <linearGradient id="SVGID_13_2_" gradientUnits="userSpaceOnUse" x1="46.3627" y1="0.1849" x2="46.3627" y2="73.8946">
                              <stop offset="0" style="stop-color:#E9DA5B"/>
                              <stop offset="1" style="stop-color:#76A86F"/>
                            </linearGradient>
                            <path fill="url(#SVGID_13_2_)" d="M46.503,41.771c-1.18,0-2.311-0.438-3.184-1.233c-2.9-2.654-6.356-6.598-6.356-10.324&#9;&#9;&#9;&#9;c0-5.742,8.568-22.94,8.933-23.67l0.607-1.213l0.607,1.214c0.035,0.069,3.503,7.02,6.082,13.544l0.047,0.119v0.127&#9;&#9;&#9;&#9;c0,0.372-0.303,0.675-0.678,0.675c-0.302,0-0.559-0.196-0.646-0.467c-1.91-4.828-4.308-9.885-5.412-12.161&#9;&#9;&#9;&#9;c-1.99,4.104-8.185,17.253-8.185,21.833c0,3.409,3.708,7.31,5.918,9.333c0.621,0.566,1.426,0.878,2.267,0.878&#9;&#9;&#9;&#9;c0.84,0,1.645-0.311,2.264-0.875c2.126-1.945,4.836-4.862,5.667-7.711c0.104-0.357,0.479-0.563,0.84-0.459&#9;&#9;&#9;&#9;c0.36,0.103,0.566,0.477,0.462,0.834c-0.918,3.148-3.798,6.266-6.052,8.328C48.813,41.335,47.683,41.771,46.503,41.771z"/>
                            <linearGradient id="SVGID_14_2_" gradientUnits="userSpaceOnUse" x1="46.5028" y1="0.1849" x2="46.5028" y2="73.8946">
                              <stop offset="0" style="stop-color:#E9DA5B"/>
                              <stop offset="1" style="stop-color:#76A86F"/>
                            </linearGradient>
                            <path fill="url(#SVGID_14_2_)" d="M46.503,52.529c-0.374,0-0.678-0.301-0.678-0.673V41.098c0-0.372,0.303-0.673,0.678-0.673&#9;&#9;&#9;&#9;s0.678,0.301,0.678,0.673v10.757C47.181,52.227,46.877,52.529,46.503,52.529z"/>
                            <linearGradient id="SVGID_15_2_" gradientUnits="userSpaceOnUse" x1="49.3196" y1="0.1849" x2="49.3196" y2="73.8946">
                              <stop offset="0" style="stop-color:#E9DA5B"/>
                              <stop offset="1" style="stop-color:#76A86F"/>
                            </linearGradient>
                            <path fill="url(#SVGID_15_2_)" d="M49.32,31.407c-0.374,0-0.678-0.301-0.678-0.673v-2.852c0-0.372,0.303-0.673,0.678-0.673&#9;&#9;&#9;&#9;c0.374,0,0.678,0.301,0.678,0.673v2.852C49.997,31.105,49.694,31.407,49.32,31.407z"/>
                            <linearGradient id="SVGID_16_2_" gradientUnits="userSpaceOnUse" x1="44.9514" y1="0.1849" x2="44.9514" y2="73.8946">
                              <stop offset="0" style="stop-color:#E9DA5B"/>
                              <stop offset="1" style="stop-color:#76A86F"/>
                            </linearGradient>
                            <path fill="url(#SVGID_16_2_)" d="M44.951,31.407c-0.374,0-0.678-0.301-0.678-0.673v-2.852c0-0.372,0.303-0.673,0.678-0.673&#9;&#9;&#9;&#9;c0.374,0,0.678,0.301,0.678,0.673v2.852C45.629,31.105,45.326,31.407,44.951,31.407z"/>
                            <linearGradient id="SVGID_17_2_" gradientUnits="userSpaceOnUse" x1="45.9498" y1="0.1849" x2="45.9498" y2="73.8946">
                              <stop offset="0" style="stop-color:#E9DA5B"/>
                              <stop offset="1" style="stop-color:#76A86F"/>
                            </linearGradient>
                            <path fill="url(#SVGID_17_2_)" d="M45.95,21.984c-0.374,0-0.678-0.301-0.678-0.673v-2.852c0-0.372,0.303-0.673,0.678-0.673&#9;&#9;&#9;&#9;c0.374,0,0.678,0.301,0.678,0.673v2.852C46.627,21.682,46.324,21.984,45.95,21.984z"/>
                          </g>
                          <g>
                            <linearGradient id="SVGID_18_2_" gradientUnits="userSpaceOnUse" x1="60.498" y1="0.1849" x2="60.498" y2="73.8946">
                              <stop offset="0" style="stop-color:#E9DA5B"/>
                              <stop offset="1" style="stop-color:#76A86F"/>
                            </linearGradient>
                            <path fill="url(#SVGID_18_2_)" d="M60.5,36.5c-1.181,0-2.312-0.438-3.185-1.235c-2.899-2.647-6.356-6.586-6.356-10.322&#9;&#9;&#9;&#9;c0-5.741,8.567-22.942,8.932-23.672l0.607-1.214l0.607,1.214c0.365,0.729,8.932,17.93,8.932,23.671&#9;&#9;&#9;&#9;c0,3.737-3.458,7.678-6.359,10.326C62.808,36.063,61.679,36.5,60.5,36.5z M60.498,3.11c-1.99,4.106-8.184,17.255-8.184,21.834&#9;&#9;&#9;&#9;c0,3.418,3.707,7.313,5.917,9.33c0.621,0.567,1.427,0.88,2.268,0.88c0.839,0,1.642-0.311,2.261-0.876&#9;&#9;&#9;&#9;c2.211-2.018,5.921-5.915,5.921-9.334C68.681,20.364,62.488,7.215,60.498,3.11z"/>
                            <linearGradient id="SVGID_19_2_" gradientUnits="userSpaceOnUse" x1="60.4987" y1="0.1849" x2="60.4987" y2="73.8946">
                              <stop offset="0" style="stop-color:#E9DA5B"/>
                              <stop offset="1" style="stop-color:#76A86F"/>
                            </linearGradient>
                            <path fill="url(#SVGID_19_2_)" d="M60.499,43.371c-0.374,0-0.678-0.301-0.678-0.673v-6.87c0-0.372,0.303-0.673,0.678-0.673&#9;&#9;&#9;&#9;s0.678,0.301,0.678,0.673v6.87C61.176,43.069,60.873,43.371,60.499,43.371z"/>
                            <linearGradient id="SVGID_20_2_" gradientUnits="userSpaceOnUse" x1="63.3152" y1="0.1849" x2="63.3152" y2="73.8946">
                              <stop offset="0" style="stop-color:#E9DA5B"/>
                              <stop offset="1" style="stop-color:#76A86F"/>
                            </linearGradient>
                            <path fill="url(#SVGID_20_2_)" d="M63.315,26.137c-0.374,0-0.678-0.301-0.678-0.673v-2.852c0-0.372,0.303-0.673,0.678-0.673&#9;&#9;&#9;&#9;c0.374,0,0.678,0.301,0.678,0.673v2.852C63.993,25.835,63.69,26.137,63.315,26.137z"/>
                            <linearGradient id="SVGID_21_2_" gradientUnits="userSpaceOnUse" x1="58.947" y1="0.1849" x2="58.947" y2="73.8946">
                              <stop offset="0" style="stop-color:#E9DA5B"/>
                              <stop offset="1" style="stop-color:#76A86F"/>
                            </linearGradient>
                            <path fill="url(#SVGID_21_2_)" d="M58.947,26.137c-0.374,0-0.678-0.301-0.678-0.673v-2.852c0-0.372,0.303-0.673,0.678-0.673&#9;&#9;&#9;&#9;c0.374,0,0.678,0.301,0.678,0.673v2.852C59.625,25.835,59.321,26.137,58.947,26.137z"/>
                            <linearGradient id="SVGID_22_2_" gradientUnits="userSpaceOnUse" x1="59.9454" y1="0.1849" x2="59.9454" y2="73.8946">
                              <stop offset="0" style="stop-color:#E9DA5B"/>
                              <stop offset="1" style="stop-color:#76A86F"/>
                            </linearGradient>
                            <path fill="url(#SVGID_22_2_)" d="M59.945,16.713c-0.374,0-0.678-0.301-0.678-0.673v-2.852c0-0.372,0.303-0.673,0.678-0.673&#9;&#9;&#9;&#9;c0.374,0,0.678,0.301,0.678,0.673v2.852C60.623,16.412,60.32,16.713,59.945,16.713z"/>
                          </g>
                        </g>
                      </svg>