<svg xmlns="http://www.w3.org/2000/svg" x="0px" y="0px" width="72px" height="67px" viewBox="0 0 72 67" enable-background="new 0 0 72 67">
                        <g>
                          <linearGradient id="SVGID_1_3_" gradientUnits="userSpaceOnUse" x1="36.0002" y1="0.0548" x2="36.0002" y2="67.1024">
                            <stop offset="0" stop-color="var(--color-stop-1)"/>
                            <stop offset="1" stop-color="var(--color-stop-2)"/>
                          </linearGradient>
                          <path fill="url(#SVGID_1_3_)" d="M51.652,67H20.348V42.571h31.305V67z M21.571,65.768H50.43V43.803H21.571V65.768z"/>
                          <linearGradient id="SVGID_2_3_" gradientUnits="userSpaceOnUse" x1="36.0002" y1="0.0548" x2="36.0002" y2="67.1024">
                            <stop offset="0" stop-color="var(--color-stop-1)"/>
                            <stop offset="1" stop-color="var(--color-stop-2)"/>
                          </linearGradient>
                          <path fill="url(#SVGID_2_3_)" d="M36,67c-0.206,0-0.399-0.105-0.512-0.279L20.447,43.524c-0.185-0.285-0.105-0.666,0.178-0.853&#9;&#9;&#9;c0.283-0.186,0.662-0.106,0.846,0.179L36,65.258L50.529,42.85c0.184-0.285,0.564-0.365,0.846-0.179&#9;&#9;&#9;c0.283,0.186,0.362,0.568,0.178,0.853L36.512,66.721C36.399,66.895,36.206,67,36,67z"/>
                          <linearGradient id="SVGID_3_3_" gradientUnits="userSpaceOnUse" x1="36.0002" y1="0.0548" x2="36.0002" y2="67.1024">
                            <stop offset="0" stop-color="var(--color-stop-1)"/>
                            <stop offset="1" stop-color="var(--color-stop-2)"/>
                          </linearGradient>
                          <path fill="url(#SVGID_3_3_)" d="M51.042,67c-0.2,0-0.395-0.098-0.512-0.279L36,44.314L21.471,66.721&#9;&#9;&#9;c-0.184,0.285-0.563,0.365-0.846,0.179c-0.283-0.186-0.362-0.568-0.178-0.853L35.488,42.85c0.113-0.174,0.306-0.279,0.512-0.279&#9;&#9;&#9;s0.399,0.105,0.512,0.279l15.041,23.197c0.185,0.285,0.105,0.666-0.178,0.853C51.272,66.968,51.156,67,51.042,67z"/>
                          <linearGradient id="SVGID_4_3_" gradientUnits="userSpaceOnUse" x1="36" y1="0.0548" x2="36" y2="67.1024">
                            <stop offset="0" stop-color="var(--color-stop-1)"/>
                            <stop offset="1" stop-color="var(--color-stop-2)"/>
                          </linearGradient>
                          <path fill="url(#SVGID_4_3_)" d="M36,67c-0.338,0-0.611-0.276-0.611-0.616V43.187c0-0.34,0.274-0.616,0.611-0.616&#9;&#9;&#9;s0.611,0.276,0.611,0.616v23.197C36.611,66.724,36.338,67,36,67z"/>
                          <linearGradient id="SVGID_5_3_" gradientUnits="userSpaceOnUse" x1="36" y1="0.0548" x2="36" y2="67.1024">
                            <stop offset="0" stop-color="var(--color-stop-1)"/>
                            <stop offset="1" stop-color="var(--color-stop-2)"/>
                          </linearGradient>
                          <path fill="url(#SVGID_5_3_)" d="M41.041,27.211H30.959v-7.353h10.082V27.211z M32.182,25.979h7.636V21.09h-7.636V25.979z"/>
                          <linearGradient id="SVGID_6_3_" gradientUnits="userSpaceOnUse" x1="14.1638" y1="0.0548" x2="14.1638" y2="67.1024">
                            <stop offset="0" stop-color="var(--color-stop-1)"/>
                            <stop offset="1" stop-color="var(--color-stop-2)"/>
                          </linearGradient>
                          <path fill="url(#SVGID_6_3_)" d="M21.571,67H6.756V30.444c0-0.34,0.274-0.616,0.611-0.616s0.611,0.276,0.611,0.616v35.324h12.37&#9;&#9;&#9;v-22.58c0-0.34,0.274-0.616,0.611-0.616c0.338,0,0.611,0.276,0.611,0.616V67z"/>
                          <linearGradient id="SVGID_7_3_" gradientUnits="userSpaceOnUse" x1="57.8365" y1="0.0548" x2="57.8365" y2="67.1024">
                            <stop offset="0" stop-color="var(--color-stop-1)"/>
                            <stop offset="1" stop-color="var(--color-stop-2)"/>
                          </linearGradient>
                          <path fill="url(#SVGID_7_3_)" d="M65.244,67H50.429V43.188c0-0.34,0.274-0.616,0.611-0.616c0.338,0,0.611,0.276,0.611,0.616v22.58&#9;&#9;&#9;h12.369V30.444c0-0.34,0.274-0.616,0.611-0.616c0.338,0,0.611,0.276,0.611,0.616V67z"/>
                          <linearGradient id="SVGID_8_3_" gradientUnits="userSpaceOnUse" x1="36" y1="0.0548" x2="36" y2="67.1024">
                            <stop offset="0" stop-color="var(--color-stop-1)"/>
                            <stop offset="1" stop-color="var(--color-stop-2)"/>
                          </linearGradient>
                          <path fill="url(#SVGID_8_3_)" d="M67.793,37.395L54.987,14.341L36,5.364l-18.987,8.977L4.207,37.395L0,35.023l13.563-24.415L36,0&#9;&#9;&#9;l22.438,10.608L72,35.023L67.793,37.395z M36,4.004l19.862,9.391l12.401,22.324l2.072-1.168L57.563,11.555L36,1.361L14.438,11.555&#9;&#9;&#9;L1.664,34.55l2.072,1.168l12.401-22.324L36,4.004z"/>
                          <linearGradient id="SVGID_9_3_" gradientUnits="userSpaceOnUse" x1="36" y1="0.0548" x2="36" y2="67.1024">
                            <stop offset="0" stop-color="var(--color-stop-1)"/>
                            <stop offset="1" stop-color="var(--color-stop-2)"/>
                          </linearGradient>
                          <path fill="url(#SVGID_9_3_)" d="M36,18.312c-0.338,0-0.611-0.276-0.611-0.616V8.393c0-0.34,0.274-0.616,0.611-0.616&#9;&#9;&#9;s0.611,0.276,0.611,0.616v9.303C36.611,18.036,36.338,18.312,36,18.312z"/>
                          <linearGradient id="SVGID_10_3_" gradientUnits="userSpaceOnUse" x1="36" y1="0.0548" x2="36" y2="67.1024">
                            <stop offset="0" stop-color="var(--color-stop-1)"/>
                            <stop offset="1" stop-color="var(--color-stop-2)"/>
                          </linearGradient>
                          <path fill="url(#SVGID_10_3_)" d="M36,40.421c-0.338,0-0.611-0.276-0.611-0.616v-9.092c0-0.34,0.274-0.616,0.611-0.616&#9;&#9;&#9;s0.611,0.276,0.611,0.616v9.092C36.611,40.145,36.338,40.421,36,40.421z"/>
                          <linearGradient id="SVGID_11_3_" gradientUnits="userSpaceOnUse" x1="28.2748" y1="0.0548" x2="28.2748" y2="67.1024">
                            <stop offset="0" stop-color="var(--color-stop-1)"/>
                            <stop offset="1" stop-color="var(--color-stop-2)"/>
                          </linearGradient>
                          <path fill="url(#SVGID_11_3_)" d="M28.275,40.421c-0.338,0-0.611-0.276-0.611-0.616V12.622c0-0.34,0.274-0.616,0.611-0.616&#9;&#9;&#9;c0.338,0,0.611,0.276,0.611,0.616v27.183C28.886,40.145,28.613,40.421,28.275,40.421z"/>
                          <linearGradient id="SVGID_12_3_" gradientUnits="userSpaceOnUse" x1="43.7252" y1="0.0548" x2="43.7252" y2="67.1024">
                            <stop offset="0" stop-color="var(--color-stop-1)"/>
                            <stop offset="1" stop-color="var(--color-stop-2)"/>
                          </linearGradient>
                          <path fill="url(#SVGID_12_3_)" d="M43.725,40.421c-0.338,0-0.611-0.276-0.611-0.616V12.622c0-0.34,0.274-0.616,0.611-0.616&#9;&#9;&#9;s0.611,0.276,0.611,0.616v27.183C44.337,40.145,44.063,40.421,43.725,40.421z"/>
                          <linearGradient id="SVGID_13_3_" gradientUnits="userSpaceOnUse" x1="21.559" y1="0.0548" x2="21.559" y2="67.1024">
                            <stop offset="0" stop-color="var(--color-stop-1)"/>
                            <stop offset="1" stop-color="var(--color-stop-2)"/>
                          </linearGradient>
                          <path fill="url(#SVGID_13_3_)" d="M21.559,40.421c-0.338,0-0.611-0.276-0.611-0.616V16.218c0-0.34,0.274-0.616,0.611-0.616&#9;&#9;&#9;c0.338,0,0.611,0.276,0.611,0.616v23.587C22.17,40.145,21.897,40.421,21.559,40.421z"/>
                          <linearGradient id="SVGID_14_3_" gradientUnits="userSpaceOnUse" x1="50.441" y1="0.0548" x2="50.441" y2="67.1024">
                            <stop offset="0" stop-color="var(--color-stop-1)"/>
                            <stop offset="1" stop-color="var(--color-stop-2)"/>
                          </linearGradient>
                          <path fill="url(#SVGID_14_3_)" d="M50.441,40.421c-0.338,0-0.611-0.276-0.611-0.616V16.218c0-0.34,0.274-0.616,0.611-0.616&#9;&#9;&#9;c0.338,0,0.611,0.276,0.611,0.616v23.587C51.052,40.145,50.779,40.421,50.441,40.421z"/>
                          <linearGradient id="SVGID_15_3_" gradientUnits="userSpaceOnUse" x1="14.8438" y1="0.0548" x2="14.8438" y2="67.1024">
                            <stop offset="0" stop-color="var(--color-stop-1)"/>
                            <stop offset="1" stop-color="var(--color-stop-2)"/>
                          </linearGradient>
                          <path fill="url(#SVGID_15_3_)" d="M14.844,64.101c-0.338,0-0.611-0.276-0.611-0.616v-39.95c0-0.34,0.274-0.616,0.611-0.616&#9;&#9;&#9;c0.338,0,0.611,0.276,0.611,0.616v39.95C15.455,63.825,15.182,64.101,14.844,64.101z"/>
                          <linearGradient id="SVGID_16_3_" gradientUnits="userSpaceOnUse" x1="57.1568" y1="0.0548" x2="57.1568" y2="67.1024">
                            <stop offset="0" stop-color="var(--color-stop-1)"/>
                            <stop offset="1" stop-color="var(--color-stop-2)"/>
                          </linearGradient>
                          <path fill="url(#SVGID_16_3_)" d="M57.157,64.101c-0.338,0-0.611-0.276-0.611-0.616v-39.95c0-0.34,0.274-0.616,0.611-0.616&#9;&#9;&#9;c0.338,0,0.611,0.276,0.611,0.616v39.95C57.768,63.825,57.495,64.101,57.157,64.101z"/>
                        </g>
                      </svg>