<svg xmlns="http://www.w3.org/2000/svg" x="0px" y="0px" width="69px" height="73px" viewBox="0 0 69 73" enable-background="new 0 0 69 73">
                        <g>
                          <linearGradient id="SVGID_1_5_" gradientUnits="userSpaceOnUse" x1="37.3535" y1="0.2388" x2="37.3535" y2="72.8756">
                            <stop offset="0" stop-color="var(--color-stop-1)"/>
                            <stop offset="1" stop-color="var(--color-stop-2)"/>
                          </linearGradient>
                          <path fill="url(#SVGID_1_5_)" d="M69,55.141H5.707V35.91H69V55.141z M7.018,53.797h60.672V37.254H7.018V53.797z"/>
                          <linearGradient id="SVGID_2_5_" gradientUnits="userSpaceOnUse" x1="35.1987" y1="0.2388" x2="35.1987" y2="72.8756">
                            <stop offset="0" stop-color="var(--color-stop-1)"/>
                            <stop offset="1" stop-color="var(--color-stop-2)"/>
                          </linearGradient>
                          <path fill="url(#SVGID_2_5_)" d="M66.845,73.028H3.552v-19.23h63.293V73.028z M4.863,71.684h60.672V55.141H4.863V71.684z"/>
                          <linearGradient id="SVGID_3_5_" gradientUnits="userSpaceOnUse" x1="58.8526" y1="0.2388" x2="58.8526" y2="72.8756">
                            <stop offset="0" stop-color="var(--color-stop-1)"/>
                            <stop offset="1" stop-color="var(--color-stop-2)"/>
                          </linearGradient>
                          <path fill="url(#SVGID_3_5_)" d="M58.853,48.74c-1.503,0-2.726-1.254-2.726-2.794c0-1.541,1.223-2.794,2.726-2.794&#9;&#9;&#9;c1.503,0,2.725,1.253,2.725,2.794C61.578,47.486,60.355,48.74,58.853,48.74z M58.853,44.495c-0.78,0-1.415,0.651-1.415,1.45&#9;&#9;&#9;c0,0.8,0.635,1.451,1.415,1.451c0.78,0,1.415-0.651,1.415-1.451C60.268,45.146,59.633,44.495,58.853,44.495z"/>
                          <linearGradient id="SVGID_4_5_" gradientUnits="userSpaceOnUse" x1="15.5911" y1="0.2388" x2="15.5911" y2="72.8756">
                            <stop offset="0" stop-color="var(--color-stop-1)"/>
                            <stop offset="1" stop-color="var(--color-stop-2)"/>
                          </linearGradient>
                          <path fill="url(#SVGID_4_5_)" d="M15.591,48.74c-1.503,0-2.725-1.254-2.725-2.794c0-1.541,1.223-2.794,2.725-2.794&#9;&#9;&#9;c1.503,0,2.726,1.253,2.726,2.794C18.317,47.486,17.094,48.74,15.591,48.74z M15.591,44.495c-0.78,0-1.415,0.651-1.415,1.45&#9;&#9;&#9;c0,0.8,0.635,1.451,1.415,1.451c0.781,0,1.415-0.651,1.415-1.451C17.006,45.146,16.371,44.495,15.591,44.495z"/>
                          <linearGradient id="SVGID_5_5_" gradientUnits="userSpaceOnUse" x1="56.8298" y1="0.2388" x2="56.8298" y2="72.8756">
                            <stop offset="0" stop-color="var(--color-stop-1)"/>
                            <stop offset="1" stop-color="var(--color-stop-2)"/>
                          </linearGradient>
                          <path fill="url(#SVGID_5_5_)" d="M56.83,66.962c-1.503,0-2.726-1.253-2.726-2.794c0-1.541,1.223-2.794,2.726-2.794&#9;&#9;&#9;c1.503,0,2.726,1.253,2.726,2.794C59.556,65.708,58.333,66.962,56.83,66.962z M56.83,62.717c-0.78,0-1.415,0.651-1.415,1.451&#9;&#9;&#9;c0,0.8,0.635,1.451,1.415,1.451c0.781,0,1.415-0.651,1.415-1.451C58.245,63.368,57.61,62.717,56.83,62.717z"/>
                          <linearGradient id="SVGID_6_5_" gradientUnits="userSpaceOnUse" x1="13.5681" y1="0.2388" x2="13.5681" y2="72.8756">
                            <stop offset="0" stop-color="var(--color-stop-1)"/>
                            <stop offset="1" stop-color="var(--color-stop-2)"/>
                          </linearGradient>
                          <path fill="url(#SVGID_6_5_)" d="M13.568,66.962c-1.503,0-2.726-1.253-2.726-2.794c0-1.541,1.223-2.794,2.726-2.794&#9;&#9;&#9;c1.503,0,2.726,1.253,2.726,2.794C16.294,65.708,15.071,66.962,13.568,66.962z M13.568,62.717c-0.78,0-1.415,0.651-1.415,1.451&#9;&#9;&#9;c0,0.8,0.635,1.451,1.415,1.451c0.78,0,1.415-0.651,1.415-1.451C14.983,63.368,14.348,62.717,13.568,62.717z"/>
                          <g>
                            <g>
                              <linearGradient id="SVGID_7_5_" gradientUnits="userSpaceOnUse" x1="16.9623" y1="0.2388" x2="16.9623" y2="72.8756">
                                <stop offset="0" stop-color="var(--color-stop-1)"/>
                                <stop offset="1" stop-color="var(--color-stop-2)"/>
                              </linearGradient>
                              <path fill="url(#SVGID_7_5_)" d="M29.018,37.254c-0.286,0-0.549-0.194-0.63-0.49l-6.623-24.111&#9;&#9;&#9;&#9;&#9;c-0.331-1.207-1.161-2.177-2.279-2.669c-1.117-0.487-2.375-0.433-3.449,0.149l-0.033,0.017c-0.189,0.101-0.382,0.206-0.575,0.311&#9;&#9;&#9;&#9;&#9;c-0.056,0.031-0.113,0.061-0.169,0.092v0l-0.35,0.192c-1.014,0.547-2.024,1.093-3.038,1.644l-4.173,2.264&#9;&#9;&#9;&#9;&#9;c-1.076,0.58-1.827,1.614-2.063,2.838c-0.229,1.229,0.087,2.478,0.867,3.423L18.967,36.15c0.233,0.284,0.196,0.708-0.081,0.946&#9;&#9;&#9;&#9;&#9;c-0.277,0.239-0.69,0.201-0.923-0.083L5.5,21.78c-1.036-1.254-1.456-2.911-1.151-4.545c0.314-1.629,1.311-3.001,2.736-3.769&#9;&#9;&#9;&#9;&#9;l4.173-2.264c0.898-0.488,1.793-0.972,2.691-1.456V9.744l0.352-0.192c0.172-0.092,0.343-0.185,0.514-0.278&#9;&#9;&#9;&#9;&#9;c0.196-0.107,0.392-0.213,0.589-0.318l0.03-0.016C16.849,8.173,18.517,8.101,20,8.748c1.486,0.654,2.588,1.942,3.024,3.536&#9;&#9;&#9;&#9;&#9;l0.127,0.447l0.423,1.552L29.649,36.4c0.098,0.357-0.105,0.728-0.453,0.829C29.136,37.246,29.077,37.254,29.018,37.254z"/>
                              <linearGradient id="SVGID_8_5_" gradientUnits="userSpaceOnUse" x1="4.8577" y1="0.2388" x2="4.8577" y2="72.8756">
                                <stop offset="0" stop-color="var(--color-stop-1)"/>
                                <stop offset="1" stop-color="var(--color-stop-2)"/>
                              </linearGradient>
                              <path fill="url(#SVGID_8_5_)" d="M9.06,13.824c-0.185,0-0.369-0.08-0.499-0.236L0.157,3.497C-0.078,3.215-0.045,2.791,0.23,2.55&#9;&#9;&#9;&#9;&#9;c0.275-0.241,0.689-0.208,0.924,0.075l8.405,10.092c0.235,0.282,0.202,0.706-0.073,0.947C9.362,13.771,9.211,13.824,9.06,13.824z&#9;&#9;&#9;&#9;&#9;"/>
                              <linearGradient id="SVGID_9_5_" gradientUnits="userSpaceOnUse" x1="10.0299" y1="0.2388" x2="10.0299" y2="72.8756">
                                <stop offset="0" stop-color="var(--color-stop-1)"/>
                                <stop offset="1" stop-color="var(--color-stop-2)"/>
                              </linearGradient>
                              <path fill="url(#SVGID_9_5_)" d="M11.563,12.469c-0.235,0-0.462-0.13-0.58-0.358L7.918,6.168C7.749,5.84,7.871,5.434,8.191,5.26&#9;&#9;&#9;&#9;&#9;c0.32-0.173,0.717-0.048,0.886,0.28l3.064,5.943c0.169,0.328,0.047,0.734-0.273,0.908C11.771,12.444,11.666,12.469,11.563,12.469&#9;&#9;&#9;&#9;&#9;z"/>
                              <linearGradient id="SVGID_10_5_" gradientUnits="userSpaceOnUse" x1="13.5003" y1="0.2388" x2="13.5003" y2="72.8756">
                                <stop offset="0" stop-color="var(--color-stop-1)"/>
                                <stop offset="1" stop-color="var(--color-stop-2)"/>
                              </linearGradient>
                              <path fill="url(#SVGID_10_5_)" d="M14.603,10.821c-0.296,0-0.565-0.207-0.637-0.516L11.76,0.856&#9;&#9;&#9;&#9;&#9;c-0.084-0.361,0.133-0.723,0.485-0.81c0.35-0.087,0.705,0.136,0.79,0.497l2.206,9.449c0.084,0.361-0.133,0.723-0.485,0.81&#9;&#9;&#9;&#9;&#9;C14.705,10.815,14.653,10.821,14.603,10.821z"/>
                              <linearGradient id="SVGID_11_5_" gradientUnits="userSpaceOnUse" x1="13.2657" y1="0.2388" x2="13.2657" y2="72.8756">
                                <stop offset="0" stop-color="var(--color-stop-1)"/>
                                <stop offset="1" stop-color="var(--color-stop-2)"/>
                              </linearGradient>
                              <path fill="url(#SVGID_11_5_)" d="M11.39,21.446c-0.235,0-0.462-0.13-0.58-0.358c-0.169-0.328-0.047-0.734,0.273-0.908l3.752-2.033&#9;&#9;&#9;&#9;&#9;c0.32-0.173,0.717-0.048,0.886,0.28s0.047,0.734-0.273,0.908l-3.752,2.033C11.598,21.421,11.494,21.446,11.39,21.446z"/>
                              <linearGradient id="SVGID_12_5_" gradientUnits="userSpaceOnUse" x1="19.7874" y1="0.2388" x2="19.7874" y2="72.8756">
                                <stop offset="0" stop-color="var(--color-stop-1)"/>
                                <stop offset="1" stop-color="var(--color-stop-2)"/>
                              </linearGradient>
                              <path fill="url(#SVGID_12_5_)" d="M18.478,22.247c-0.235,0-0.462-0.13-0.58-0.358c-0.169-0.328-0.047-0.734,0.273-0.908&#9;&#9;&#9;&#9;&#9;l2.619-1.419c0.32-0.173,0.717-0.048,0.886,0.28c0.169,0.328,0.047,0.734-0.273,0.908l-2.619,1.419&#9;&#9;&#9;&#9;&#9;C18.686,22.222,18.582,22.247,18.478,22.247z"/>
                              <linearGradient id="SVGID_13_5_" gradientUnits="userSpaceOnUse" x1="17.6347" y1="0.2388" x2="17.6347" y2="72.8756">
                                <stop offset="0" stop-color="var(--color-stop-1)"/>
                                <stop offset="1" stop-color="var(--color-stop-2)"/>
                              </linearGradient>
                              <path fill="url(#SVGID_13_5_)" d="M13.953,31.742c-0.235,0-0.462-0.13-0.58-0.358c-0.169-0.328-0.047-0.734,0.273-0.908&#9;&#9;&#9;&#9;&#9;l7.364-3.991c0.32-0.173,0.717-0.048,0.886,0.28c0.169,0.328,0.047,0.734-0.273,0.908l-7.364,3.991&#9;&#9;&#9;&#9;&#9;C14.161,31.717,14.056,31.742,13.953,31.742z"/>
                            </g>
                            <g>
                              <linearGradient id="SVGID_14_5_" gradientUnits="userSpaceOnUse" x1="34.7895" y1="0.2388" x2="34.7895" y2="72.8756">
                                <stop offset="0" stop-color="var(--color-stop-1)"/>
                                <stop offset="1" stop-color="var(--color-stop-2)"/>
                              </linearGradient>
                              <path fill="url(#SVGID_14_5_)" d="M26.199,26.986c-0.35,0-0.64-0.283-0.654-0.644c-0.235-5.913,0.717-11.107,2.68-14.625&#9;&#9;&#9;&#9;&#9;c0.717-1.288,2.175-2.669,3.586-4.005c0.533-0.505,1.037-0.981,1.471-1.427l0.171-0.175c1.558-1.598,2.495-2.563,3.481-2.478&#9;&#9;&#9;&#9;&#9;c0.286,0.025,0.699,0.158,1.043,0.656c0.34,0.492,0.866,0.908,1.475,1.389c1.52,1.202,3.411,2.697,3.649,6.437&#9;&#9;&#9;&#9;&#9;c0.1,1.581,0.29,3.086,0.473,4.541c0.375,2.978,0.73,5.791,0.295,8.86c-0.052,0.367-0.385,0.622-0.743,0.568&#9;&#9;&#9;&#9;&#9;c-0.358-0.053-0.606-0.394-0.554-0.761c0.409-2.886,0.066-5.61-0.298-8.494c-0.186-1.476-0.378-3.003-0.482-4.626&#9;&#9;&#9;&#9;&#9;c-0.199-3.135-1.695-4.317-3.141-5.461c-0.663-0.524-1.29-1.02-1.743-1.676c-0.054-0.078-0.087-0.095-0.087-0.095&#9;&#9;&#9;&#9;&#9;c-0.347-0.055-1.559,1.185-2.441,2.09l-0.171,0.175c-0.453,0.465-0.966,0.95-1.509,1.464c-1.275,1.207-2.721,2.575-3.337,3.684&#9;&#9;&#9;&#9;&#9;c-1.843,3.302-2.734,8.24-2.509,13.904c0.015,0.371-0.266,0.683-0.628,0.699C26.217,26.986,26.208,26.986,26.199,26.986z"/>
                              <linearGradient id="SVGID_15_5_" gradientUnits="userSpaceOnUse" x1="34.7905" y1="0.2388" x2="34.7905" y2="72.8756">
                                <stop offset="0" stop-color="var(--color-stop-1)"/>
                                <stop offset="1" stop-color="var(--color-stop-2)"/>
                              </linearGradient>
                              <path fill="url(#SVGID_15_5_)" d="M34.791,17.634c-0.362,0-0.655-0.301-0.655-0.672v-3.229c0-0.371,0.293-0.672,0.655-0.672&#9;&#9;&#9;&#9;&#9;c0.362,0,0.655,0.301,0.655,0.672v3.229C35.446,17.333,35.153,17.634,34.791,17.634z"/>
                              <linearGradient id="SVGID_16_5_" gradientUnits="userSpaceOnUse" x1="38.7522" y1="0.2388" x2="38.7522" y2="72.8756">
                                <stop offset="0" stop-color="var(--color-stop-1)"/>
                                <stop offset="1" stop-color="var(--color-stop-2)"/>
                              </linearGradient>
                              <path fill="url(#SVGID_16_5_)" d="M38.752,23.779c-0.362,0-0.655-0.301-0.655-0.672v-2.81c0-0.371,0.293-0.672,0.655-0.672&#9;&#9;&#9;&#9;&#9;c0.362,0,0.655,0.301,0.655,0.672v2.81C39.407,23.478,39.114,23.779,38.752,23.779z"/>
                              <linearGradient id="SVGID_17_5_" gradientUnits="userSpaceOnUse" x1="33.4465" y1="0.2388" x2="33.4465" y2="72.8756">
                                <stop offset="0" stop-color="var(--color-stop-1)"/>
                                <stop offset="1" stop-color="var(--color-stop-2)"/>
                              </linearGradient>
                              <path fill="url(#SVGID_17_5_)" d="M33.446,27.818c-0.362,0-0.655-0.301-0.655-0.672v-4.038c0-0.371,0.293-0.672,0.655-0.672&#9;&#9;&#9;&#9;&#9;c0.362,0,0.655,0.301,0.655,0.672v4.038C34.102,27.517,33.808,27.818,33.446,27.818z"/>
                            </g>
                            <g>
                              <linearGradient id="SVGID_18_5_" gradientUnits="userSpaceOnUse" x1="49.3" y1="0.2388" x2="49.3" y2="72.8756">
                                <stop offset="0" stop-color="var(--color-stop-1)"/>
                                <stop offset="1" stop-color="var(--color-stop-2)"/>
                              </linearGradient>
                              <path fill="url(#SVGID_18_5_)" d="M60.233,37.254c-0.331,0-0.616-0.257-0.651-0.602c-0.09-0.885-0.288-1.713-0.497-2.59&#9;&#9;&#9;&#9;&#9;c-0.361-1.513-0.734-3.078-0.516-4.934c0.138-1.164,0.74-2.384,1.377-3.675c1.402-2.84,2.186-4.821,0.388-6.416l-0.028-0.023&#9;&#9;&#9;&#9;&#9;c-0.015-0.013-0.03-0.027-0.046-0.038l-0.049-0.037c-0.292-0.245-0.609-0.453-0.94-0.62c-2.136-1.071-3.605,0.447-5.603,2.884&#9;&#9;&#9;&#9;&#9;c-0.908,1.108-1.765,2.154-2.754,2.741c-1.582,0.937-3.136,1.2-4.639,1.454c-0.98,0.166-1.906,0.322-2.84,0.655&#9;&#9;&#9;&#9;&#9;c-1.589,0.566-2.905,1.576-4.144,3.178c-1.581,2.048-2.279,4.568-2.018,7.286c0.035,0.369-0.228,0.698-0.588,0.734&#9;&#9;&#9;&#9;&#9;c-0.358,0.036-0.681-0.233-0.716-0.603c-0.291-3.027,0.525-5.958,2.295-8.252c1.401-1.811,2.907-2.959,4.741-3.613&#9;&#9;&#9;&#9;&#9;c1.041-0.371,2.066-0.544,3.058-0.711c1.451-0.245,2.821-0.476,4.195-1.291c0.79-0.469,1.576-1.428,2.407-2.443&#9;&#9;&#9;&#9;&#9;c1.767-2.156,3.966-4.84,7.183-3.227c0.414,0.208,0.809,0.467,1.173,0.77c0.044,0.032,0.086,0.067,0.126,0.102l0.028,0.024&#9;&#9;&#9;&#9;&#9;c2.722,2.414,1.179,5.54-0.061,8.052c-0.584,1.183-1.135,2.3-1.245,3.23c-0.19,1.613,0.139,2.993,0.488,4.454&#9;&#9;&#9;&#9;&#9;c0.21,0.882,0.428,1.794,0.528,2.769c0.038,0.369-0.224,0.699-0.583,0.738C60.279,37.252,60.256,37.254,60.233,37.254z"/>
                              <linearGradient id="SVGID_19_5_" gradientUnits="userSpaceOnUse" x1="61.5252" y1="0.2388" x2="61.5252" y2="72.8756">
                                <stop offset="0" stop-color="var(--color-stop-1)"/>
                                <stop offset="1" stop-color="var(--color-stop-2)"/>
                              </linearGradient>
                              <path fill="url(#SVGID_19_5_)" d="M60.627,19.088c-0.201,0-0.4-0.095-0.528-0.274c-0.215-0.299-0.152-0.719,0.139-0.939&#9;&#9;&#9;&#9;&#9;c1.125-0.849,1.784-1.496,1.439-3.311c-0.069-0.364,0.163-0.717,0.518-0.788c0.354-0.071,0.699,0.167,0.769,0.531&#9;&#9;&#9;&#9;&#9;c0.489,2.569-0.642,3.666-1.948,4.651C60.898,19.045,60.762,19.088,60.627,19.088z"/>
                            </g>
                          </g>
                        </g>
                      </svg>